<svg xmlns="http://www.w3.org/2000/svg" width="612" height="408" viewBox="0 0 612 408">
<g>
<path d="M 238.00 204.34 C227.37,206.22 211.53,206.87 198.50,205.97 C191.05,205.45 187.36,205.36 186.61,203.83 C185.91,202.42 187.74,199.77 191.43,194.41 C191.82,193.85 192.22,193.26 192.65,192.64 C206.09,173.05 221.22,153.55 222.22,154.55 C222.42,154.76 224.94,154.31 227.82,153.55 C230.69,152.79 233.27,152.17 233.54,152.17 C233.81,152.17 237.29,151.60 241.26,150.89 C248.70,149.58 288.28,148.96 289.47,150.14 C290.14,150.81 286.07,157.91 280.04,166.59 C266.12,186.62 263.08,190.80 259.73,194.55 C255.14,199.69 249.20,202.36 238.00,204.34 ZM 356.00 241.03 C341.42,243.22 324.65,245.82 318.73,246.81 C312.81,247.80 308.08,248.30 308.23,247.92 C308.49,247.27 323.27,233.83 338.68,220.25 C345.58,214.17 345.92,214.00 351.38,214.00 L 357.00 214.00 L 357.00 222.88 C357.00,233.73 357.50,234.34 364.99,232.68 C371.24,231.29 371.74,230.39 371.90,220.25 C371.98,215.41 372.34,214.00 373.50,214.00 C374.71,214.00 375.00,215.56 375.00,222.00 L 375.00 222.33 C375.00,226.92 375.00,228.89 375.97,229.68 C376.70,230.27 377.98,230.18 380.22,230.03 L 380.43 230.01 C387.23,229.55 388.00,228.67 388.00,221.40 L 388.00 214.75 L 416.75 215.39 C432.56,215.74 454.19,216.30 464.80,216.63 L 484.11 217.25 L 483.80 220.87 L 483.50 224.49 L 460.50 227.13 C429.99,230.63 388.58,236.14 356.00,241.03 ZM 267.72 276.52 C252.45,280.57 249.85,280.98 240.66,280.82 C226.58,280.56 220.00,280.03 220.00,279.15 C220.00,278.26 242.00,271.71 264.11,266.00 C289.18,259.53 314.22,254.50 358.00,247.14 C402.71,239.62 480.16,227.95 484.78,228.03 C489.28,228.11 481.94,230.08 461.00,234.41 C448.62,236.96 434.45,239.92 429.50,240.98 C424.55,242.04 410.60,244.99 398.50,247.54 C371.73,253.18 346.61,258.59 322.00,264.01 C311.83,266.25 299.25,268.97 294.05,270.06 C288.86,271.15 277.01,274.05 267.72,276.52 ZM 237.21 232.90 C227.88,234.35 198.98,234.16 192.00,232.61 C188.98,231.94 184.59,230.39 182.25,229.17 C178.28,227.11 178.00,226.68 178.00,222.80 C178.00,220.51 178.96,216.65 180.13,214.22 C182.20,209.96 182.39,209.83 185.88,210.44 C196.35,212.27 218.14,212.12 238.64,210.09 C261.67,207.81 267.00,207.57 267.00,208.81 C267.00,210.25 257.80,223.42 255.10,225.83 C251.27,229.27 245.22,231.66 237.21,232.90 ZM 214.79 270.58 C199.56,274.66 185.38,277.93 183.29,277.84 C173.43,277.43 162.06,276.40 161.53,275.87 C161.21,275.54 162.87,274.76 165.22,274.14 C184.23,269.09 192.86,266.88 201.50,264.85 L 211.50 262.50 L 205.50 262.22 C201.45,262.03 189.43,263.79 168.50,267.64 C137.80,273.28 117.05,275.45 114.85,273.25 C114.26,272.66 116.86,271.69 121.70,270.68 C137.43,267.41 165.87,262.13 179.50,259.95 C187.20,258.73 194.09,257.18 194.81,256.52 C195.87,255.54 195.44,254.64 192.56,251.76 C186.05,245.25 186.73,244.93 205.75,245.62 C219.64,246.12 222.67,246.50 223.50,247.84 C224.05,248.73 225.99,250.99 227.80,252.88 L 231.10 256.30 L 250.55 255.74 C261.25,255.43 270.00,255.49 270.00,255.88 C270.00,256.26 263.81,258.06 256.25,259.87 C248.69,261.68 230.03,266.50 214.79,270.58 ZM 339.78 184.29 C339.55,195.15 339.24,197.50 338.00,197.61 C335.20,197.86 319.09,196.18 318.04,195.53 C316.09,194.32 317.17,189.83 323.66,172.13 L 325.26 167.76 L 330.73 168.40 C334.82,168.88 337.12,169.09 338.39,170.34 C340.04,171.96 339.97,175.33 339.80,183.30 C339.79,183.62 339.79,183.95 339.78,184.29 ZM 202.00 191.48 C202.00,191.77 203.32,192.00 204.94,192.00 C207.42,192.00 210.58,189.26 225.36,174.26 C234.98,164.50 242.74,156.41 242.62,156.28 C242.38,156.05 238.33,157.05 229.33,159.56 C224.27,160.98 223.92,161.33 213.08,175.98 C206.98,184.22 202.00,191.19 202.00,191.48 ZM 423.00 190.31 L 423.00 202.00 L 418.25 201.84 C415.64,201.75 412.04,201.50 410.25,201.28 L 407.00 200.87 L 407.00 194.50 C407.00,190.99 407.36,187.90 407.79,187.63 C408.22,187.36 411.82,187.85 415.79,188.72 ZM 239.75 226.43 C241.21,227.91 249.09,226.26 251.55,223.96 C256.15,219.63 255.51,215.00 250.31,215.00 C243.69,215.00 236.33,222.96 239.75,226.43 ZM 368.00 183.00 L 368.00 201.00 L 365.17 201.00 C363.61,201.00 362.03,200.70 361.67,200.33 C361.30,199.97 361.00,195.92 361.00,191.33 L 361.00 183.00 ZM 385.00 194.11 L 385.00 202.00 L 382.17 202.00 C380.61,202.00 379.03,201.70 378.67,201.33 C377.63,200.29 377.88,186.19 378.95,185.53 C379.48,185.20 381.05,185.23 382.45,185.58 C384.91,186.19 385.00,186.49 385.00,194.11 ZM 183.75 224.92 C186.07,226.27 186.19,226.26 188.83,224.40 C190.54,223.21 191.04,222.02 190.81,219.66 C190.42,215.67 187.70,215.00 184.41,218.08 C181.57,220.75 181.30,223.50 183.75,224.92 ZM 231.01 227.01 C232.75,228.08 234.82,227.20 236.07,224.87 C236.85,223.42 236.72,222.83 235.54,222.38 C232.23,221.11 228.17,225.25 231.01,227.01 ZM 192.41 225.63 C193.23,227.75 195.43,226.81 195.82,224.17 C196.03,222.76 195.61,222.00 194.63,222.00 C192.68,222.00 191.66,223.68 192.41,225.63 Z" fill="rgb(15,9,14)"/>
<path d="M 484.00 186.85 C486.07,187.70 486.16,187.87 484.50,187.84 C482.63,187.82 467.23,183.18 463.28,181.46 C462.30,181.03 460.83,180.77 460.00,180.88 C458.67,181.06 458.67,180.97 460.00,180.06 C461.24,179.21 461.25,179.03 460.08,179.02 C459.30,179.01 458.88,178.79 459.13,178.53 C459.87,177.79 467.00,180.24 467.00,181.23 C467.00,181.72 467.37,181.89 467.81,181.62 C468.52,181.18 476.13,183.64 484.00,186.85 ZM 157.50 227.00 L 162.50 227.69 L 156.50 227.69 C153.20,227.70 148.48,227.42 146.00,227.08 C141.61,226.48 141.68,226.45 148.90,225.71 C152.96,225.30 156.53,225.19 156.81,225.48 C157.10,225.77 156.25,226.07 154.92,226.16 C153.59,226.24 154.75,226.62 157.50,227.00 ZM 483.63 229.29 C486.44,228.47 486.78,228.07 484.78,228.03 C480.16,227.95 402.71,239.62 358.00,247.14 C347.26,248.95 337.65,250.61 328.89,252.19 C362.28,246.10 405.53,239.23 465.00,230.48 C474.62,229.06 484.08,227.65 486.00,227.34 C488.41,226.94 489.19,227.09 488.50,227.81 C488.29,228.02 486.50,228.56 483.63,229.29 ZM 429.50 240.99 C424.55,242.04 410.60,244.99 398.50,247.54 C410.60,244.99 424.55,242.04 429.50,240.98 C431.62,240.53 435.41,239.73 440.04,238.76 C435.34,239.75 431.55,240.55 429.50,240.99 Z" fill="rgb(180,108,113)"/>
<path d="M 238.00 204.34 C249.20,202.36 255.14,199.69 259.73,194.55 C263.08,190.80 266.12,186.62 280.04,166.59 C286.07,157.91 290.14,150.81 289.47,150.14 C288.28,148.96 248.70,149.58 241.26,150.89 C237.29,151.60 233.81,152.17 233.54,152.17 C233.27,152.17 230.69,152.79 227.82,153.55 C224.94,154.31 222.42,154.76 222.22,154.55 C222.09,154.42 221.74,154.63 221.19,155.11 C222.91,153.15 224.53,151.39 226.00,149.89 C235.50,140.20 244.87,134.71 258.18,131.01 C273.39,126.80 299.73,126.13 316.00,129.55 C323.20,131.06 368.25,146.14 420.50,164.53 C430.95,168.20 445.58,173.28 453.00,175.80 C455.88,176.78 458.58,177.72 460.84,178.53 C459.98,178.36 459.33,178.34 459.13,178.53 C458.88,178.79 459.30,179.01 460.08,179.02 C461.25,179.03 461.24,179.21 460.00,180.06 C459.80,180.20 459.62,180.32 459.48,180.42 C446.84,176.48 427.79,170.49 399.00,161.43 C366.27,151.14 337.19,142.05 334.37,141.23 C323.67,138.12 314.44,142.35 305.55,154.43 C294.72,169.15 274.97,199.61 275.04,201.47 C275.10,203.01 288.76,186.90 310.76,159.35 C315.92,152.89 321.54,149.01 326.74,148.31 C330.45,147.81 346.25,152.07 405.00,169.39 C411.33,171.26 423.48,174.84 432.00,177.35 C440.52,179.87 455.60,184.35 465.50,187.31 L 483.50 192.70 L 483.50 217.23 L 464.80 216.63 C454.19,216.30 432.56,215.74 416.75,215.39 L 388.00 214.75 L 388.00 221.40 C388.00,224.25 387.88,226.11 387.33,227.36 C387.73,224.17 388.00,214.39 388.00,202.04 L 388.00 176.20 L 382.99 175.00 C382.55,174.89 382.13,174.79 381.74,174.69 C379.62,174.16 378.16,173.79 377.16,174.31 C374.98,175.44 374.98,180.79 375.00,197.81 C375.00,199.25 375.00,200.77 375.00,202.39 C375.00,219.83 375.21,227.36 375.82,229.54 C375.00,228.68 375.00,226.68 375.00,222.33 L 375.00 222.00 C375.00,215.56 374.71,214.00 373.50,214.00 C372.34,214.00 371.98,215.41 371.90,220.25 C371.83,224.36 371.71,226.95 371.18,228.67 C372.05,223.53 372.13,174.75 371.23,173.40 C370.28,171.96 360.43,169.62 358.49,170.37 C357.22,170.85 357.00,175.34 357.00,201.27 C357.00,219.77 357.25,229.17 357.84,231.92 C357.10,230.43 357.00,227.64 357.00,222.88 L 357.00 214.00 L 351.38 214.00 C345.92,214.00 345.58,214.17 338.68,220.25 C323.27,233.83 308.49,247.27 308.23,247.92 C308.08,248.30 312.81,247.80 318.73,246.81 C321.11,246.42 325.23,245.76 330.26,244.97 C330.01,245.01 329.75,245.05 329.50,245.09 C291.73,251.13 267.15,256.60 214.79,270.59 C200.87,274.32 187.83,277.36 184.09,277.79 C187.83,277.36 200.87,274.31 214.79,270.58 C230.03,266.50 248.69,261.68 256.25,259.87 C263.81,258.06 270.00,256.26 270.00,255.88 C270.00,255.49 261.25,255.43 250.55,255.74 L 231.10 256.30 L 227.80 252.88 C225.99,250.99 224.05,248.73 223.50,247.84 C222.67,246.50 219.64,246.12 205.75,245.62 C186.73,244.93 186.05,245.25 192.56,251.76 C195.44,254.64 195.87,255.54 194.81,256.52 C194.72,256.60 194.54,256.69 194.29,256.79 C193.89,256.42 191.69,255.94 188.80,255.64 C181.59,254.90 178.52,253.04 175.20,247.41 C173.14,243.93 172.94,242.52 173.30,234.47 C173.65,226.59 174.17,224.45 177.41,217.62 C179.47,213.28 183.08,207.19 187.50,200.37 C186.57,202.01 186.24,203.09 186.61,203.83 C187.36,205.36 191.05,205.45 198.50,205.97 C211.53,206.87 227.37,206.22 238.00,204.34 ZM 237.21 232.90 C245.22,231.66 251.27,229.27 255.10,225.83 C257.80,223.42 267.00,210.25 267.00,208.81 C267.00,207.57 261.67,207.81 238.64,210.09 C218.14,212.12 196.35,212.27 185.88,210.44 C182.39,209.83 182.20,209.96 180.13,214.22 C178.96,216.65 178.00,220.51 178.00,222.80 C178.00,226.68 178.28,227.11 182.25,229.17 C184.59,230.39 188.98,231.94 192.00,232.61 C198.98,234.16 227.88,234.35 237.21,232.90 ZM 325.29 200.61 L 326.39 200.73 C336.61,201.83 339.00,202.09 340.43,201.04 C340.91,200.69 341.29,200.18 341.82,199.50 C343.52,197.35 343.80,195.36 343.86,185.25 C343.90,178.45 343.41,172.03 342.71,170.01 C341.64,166.92 340.91,166.38 336.50,165.35 C329.72,163.78 323.45,163.73 322.30,165.25 C320.74,167.30 312.75,191.89 312.75,194.62 C312.75,196.01 313.27,197.68 313.91,198.32 C314.55,198.97 319.67,200.00 325.29,200.61 ZM 410.50 204.09 C420.62,205.11 423.55,205.05 424.80,203.80 C425.53,203.07 426.00,199.54 426.00,194.82 C426.00,187.83 425.77,186.91 423.75,185.67 C420.73,183.82 405.59,180.56 403.59,181.33 C402.28,181.83 402.00,183.71 402.00,191.91 C402.00,198.79 402.39,202.13 403.25,202.69 C403.94,203.13 407.20,203.76 410.50,204.09 ZM 436.67 205.33 C437.03,205.70 439.91,206.00 443.05,206.00 L 448.77 206.00 L 449.39 201.75 C450.34,195.20 448.98,191.71 444.93,190.31 C443.05,189.65 440.26,189.09 438.75,189.06 L 436.00 189.00 L 436.00 196.83 C436.00,201.14 436.30,204.97 436.67,205.33 ZM 459.50 207.14 C465.90,208.55 466.47,208.09 466.80,201.28 C467.12,194.47 466.91,194.24 459.50,193.71 L 456.50 193.50 L 456.50 199.99 C456.50,206.39 456.54,206.49 459.50,207.14 ZM 242.00 240.23 C242.00,241.77 265.39,240.04 272.43,237.99 C280.21,235.71 284.40,234.06 283.82,233.49 C283.42,233.09 275.42,234.16 249.75,238.06 C245.49,238.71 242.00,239.69 242.00,240.23 ZM 168.00 238.94 C168.00,241.66 167.70,241.98 165.25,241.79 C163.74,241.67 157.33,241.43 151.02,241.25 C144.70,241.07 139.10,240.50 138.57,239.97 C137.94,239.34 138.30,239.00 139.55,238.99 C141.68,238.98 156.97,237.38 163.75,236.46 C167.95,235.88 168.00,235.91 168.00,238.94 ZM 157.50 227.00 C154.75,226.62 153.59,226.24 154.92,226.16 C156.25,226.07 157.10,225.77 156.81,225.48 C156.63,225.30 155.14,225.27 153.05,225.39 L 154.35 225.26 C167.94,223.99 170.52,223.75 170.96,224.60 C171.06,224.80 171.04,225.06 171.02,225.38 C171.01,225.53 171.00,225.69 171.00,225.87 C171.00,227.91 170.59,227.99 160.75,227.85 C158.64,227.82 156.39,227.75 154.27,227.66 C155.05,227.68 155.81,227.69 156.50,227.69 L 162.50 227.69 ZM 478.11 184.57 C472.68,182.57 468.34,181.29 467.81,181.62 C467.37,181.89 467.00,181.72 467.00,181.23 C467.00,181.09 466.86,180.92 466.61,180.73 C466.83,180.83 466.96,180.90 467.00,180.94 C467.27,181.25 467.95,181.50 468.50,181.50 C469.48,181.50 474.01,183.02 478.11,184.57 ZM 380.87 229.98 C382.75,229.70 384.74,229.29 386.01,228.89 C384.94,229.54 383.32,229.80 380.87,229.98 ZM 460.97 180.89 C461.73,180.96 462.62,181.17 463.28,181.46 C463.73,181.66 464.33,181.89 465.04,182.15 C463.77,181.76 462.42,181.34 460.97,180.89 ZM 181.83 259.57 C181.07,259.70 180.29,259.83 179.50,259.95 C172.62,261.05 161.98,262.94 151.10,264.96 C161.97,262.94 172.62,261.05 179.50,259.95 C180.29,259.82 181.07,259.69 181.83,259.57 Z" fill="rgb(218,17,24)"/>
<path d="M 0.00 204.00 L 0.00 0.00 L 306.00 0.00 L 612.00 0.00 L 612.00 204.00 L 612.00 408.00 L 306.00 408.00 L 0.00 408.00 L 0.00 204.00 ZM 267.72 276.52 C277.01,274.05 288.86,271.15 294.05,270.06 C299.25,268.97 311.83,266.25 322.00,264.01 C346.61,258.59 371.73,253.18 398.50,247.54 C410.60,244.99 424.55,242.04 429.50,240.99 C434.45,239.93 449.52,236.77 463.00,233.96 C476.48,231.15 487.95,228.38 488.50,227.81 C489.19,227.09 488.41,226.94 486.00,227.34 C484.08,227.65 474.62,229.06 465.00,230.48 C357.70,246.27 303.23,255.91 264.11,266.00 C242.00,271.71 220.00,278.26 220.00,279.15 C220.00,280.03 226.58,280.56 240.66,280.82 C249.85,280.98 252.45,280.57 267.72,276.52 ZM 214.79 270.59 C267.15,256.60 291.73,251.13 329.50,245.09 C369.52,238.70 419.64,231.82 460.50,227.13 L 483.50 224.48 L 483.50 208.59 L 483.50 192.70 L 465.50 187.31 C455.60,184.35 440.52,179.87 432.00,177.35 C423.48,174.84 411.33,171.26 405.00,169.39 C346.25,152.07 330.45,147.81 326.74,148.31 C321.54,149.01 315.92,152.89 310.76,159.35 C288.76,186.90 275.10,203.01 275.04,201.47 C274.97,199.61 294.72,169.15 305.55,154.43 C314.44,142.35 323.67,138.12 334.37,141.23 C337.19,142.05 366.27,151.14 399.00,161.43 C482.61,187.73 484.02,188.16 485.18,187.77 C486.21,187.43 470.44,181.50 468.50,181.50 C467.95,181.50 467.27,181.25 467.00,180.94 C466.73,180.64 460.42,178.32 453.00,175.80 C445.58,173.28 430.95,168.20 420.50,164.53 C368.25,146.14 323.20,131.06 316.00,129.55 C299.73,126.13 273.39,126.80 258.18,131.01 C244.87,134.71 235.50,140.20 226.00,149.89 C211.91,164.26 184.79,202.06 177.41,217.62 C174.17,224.45 173.65,226.59 173.30,234.47 C172.94,242.52 173.14,243.93 175.20,247.41 C178.52,253.04 181.59,254.90 188.80,255.64 C192.27,256.00 194.74,256.61 194.30,257.00 C193.86,257.39 187.20,258.72 179.50,259.95 C165.85,262.13 137.35,267.42 121.70,270.68 C116.86,271.69 114.26,272.66 114.85,273.25 C117.05,275.45 137.80,273.28 168.50,267.64 C189.43,263.79 201.45,262.03 205.50,262.22 L 211.50 262.50 L 201.50 264.85 C192.86,266.88 184.23,269.09 165.22,274.14 C162.87,274.76 161.21,275.54 161.53,275.87 C162.06,276.40 173.43,277.43 183.29,277.84 C185.38,277.93 199.56,274.67 214.79,270.59 ZM 168.00 238.94 C168.00,235.91 167.95,235.88 163.75,236.46 C156.97,237.38 141.68,238.98 139.55,238.99 C138.30,239.00 137.94,239.34 138.57,239.97 C139.10,240.50 144.70,241.07 151.02,241.25 C157.33,241.43 163.74,241.67 165.25,241.79 C167.70,241.98 168.00,241.66 168.00,238.94 ZM 171.00 225.87 C171.00,223.52 172.89,223.54 149.50,225.72 C141.96,226.42 141.76,226.50 146.00,227.08 C148.48,227.42 155.11,227.77 160.75,227.85 C170.59,227.99 171.00,227.91 171.00,225.87 ZM 242.00 240.23 C242.00,239.69 245.49,238.71 249.75,238.06 C275.42,234.16 283.42,233.09 283.82,233.49 C284.40,234.06 280.21,235.71 272.43,237.99 C265.39,240.04 242.00,241.77 242.00,240.23 ZM 358.15 232.75 C357.34,231.94 357.00,222.73 357.00,201.27 C357.00,175.34 357.22,170.85 358.49,170.37 C360.43,169.62 370.28,171.96 371.23,173.40 C372.15,174.78 372.05,225.61 371.12,228.94 C370.72,230.37 369.42,231.64 367.97,232.02 C361.84,233.64 359.23,233.83 358.15,232.75 ZM 368.00 192.00 L 368.00 183.00 L 364.50 183.00 L 361.00 183.00 L 361.00 191.33 C361.00,195.92 361.30,199.97 361.67,200.33 C362.03,200.70 363.61,201.00 365.17,201.00 L 368.00 201.00 L 368.00 192.00 ZM 376.23 230.24 C375.30,229.93 375.00,223.25 375.00,202.39 C375.00,171.39 374.54,172.97 382.99,175.00 L 388.00 176.20 L 388.00 202.04 C388.00,216.96 387.61,228.13 387.07,228.46 C385.58,229.38 377.59,230.70 376.23,230.24 ZM 385.00 194.11 C385.00,186.49 384.91,186.19 382.45,185.58 C381.05,185.23 379.48,185.20 378.95,185.53 C377.88,186.19 377.63,200.29 378.67,201.33 C379.03,201.70 380.61,202.00 382.17,202.00 L 385.00 202.00 L 385.00 194.11 ZM 231.01 227.01 C228.17,225.25 232.23,221.11 235.54,222.38 C236.72,222.83 236.85,223.42 236.07,224.87 C234.82,227.20 232.75,228.08 231.01,227.01 ZM 192.41 225.63 C191.66,223.68 192.68,222.00 194.63,222.00 C195.61,222.00 196.03,222.76 195.82,224.17 C195.43,226.81 193.23,227.75 192.41,225.63 ZM 239.75 226.43 C236.33,222.96 243.69,215.00 250.31,215.00 C255.51,215.00 256.15,219.63 251.55,223.96 C249.09,226.26 241.21,227.91 239.75,226.43 ZM 183.75 224.92 C181.30,223.50 181.57,220.75 184.41,218.08 C187.70,215.00 190.42,215.67 190.81,219.66 C191.04,222.02 190.54,223.21 188.83,224.40 C186.19,226.26 186.07,226.27 183.75,224.92 ZM 459.50 207.14 C456.54,206.49 456.50,206.39 456.50,199.99 L 456.50 193.50 L 459.50 193.71 C466.91,194.24 467.12,194.47 466.80,201.28 C466.47,208.09 465.90,208.55 459.50,207.14 ZM 436.67 205.33 C436.30,204.97 436.00,201.14 436.00,196.83 L 436.00 189.00 L 438.75 189.06 C440.26,189.09 443.05,189.65 444.93,190.31 C448.98,191.71 450.34,195.20 449.39,201.75 L 448.77 206.00 L 443.05 206.00 C439.91,206.00 437.03,205.70 436.67,205.33 ZM 410.50 204.09 C407.20,203.76 403.94,203.13 403.25,202.69 C402.39,202.13 402.00,198.79 402.00,191.91 C402.00,183.71 402.28,181.83 403.59,181.33 C405.59,180.56 420.73,183.82 423.75,185.67 C425.77,186.91 426.00,187.83 426.00,194.82 C426.00,199.54 425.53,203.07 424.80,203.80 C423.55,205.05 420.62,205.11 410.50,204.09 ZM 423.00 196.15 L 423.00 190.31 L 415.79 188.72 C411.82,187.85 408.22,187.36 407.79,187.63 C407.36,187.90 407.00,190.99 407.00,194.50 L 407.00 200.87 L 410.25 201.28 C412.04,201.50 415.64,201.75 418.25,201.84 L 423.00 202.00 L 423.00 196.15 ZM 325.29 200.61 C319.67,200.00 314.55,198.97 313.91,198.32 C313.27,197.68 312.75,196.01 312.75,194.62 C312.75,191.89 320.74,167.30 322.30,165.25 C323.45,163.73 329.72,163.78 336.50,165.35 C340.91,166.38 341.64,166.92 342.71,170.01 C343.41,172.03 343.90,178.45 343.86,185.25 C343.80,195.36 343.52,197.35 341.82,199.50 C339.66,202.24 340.11,202.21 325.29,200.61 ZM 339.78 184.29 C340.10,169.15 340.31,169.52 330.73,168.40 L 325.26 167.76 L 323.66 172.13 C317.17,189.83 316.09,194.32 318.04,195.53 C319.09,196.18 335.20,197.86 338.00,197.61 C339.24,197.50 339.55,195.15 339.78,184.29 ZM 202.00 191.48 C202.00,191.19 206.98,184.22 213.08,175.98 C223.92,161.33 224.27,160.98 229.33,159.56 C238.33,157.05 242.38,156.05 242.62,156.28 C242.74,156.41 234.98,164.50 225.36,174.26 C210.58,189.26 207.42,192.00 204.94,192.00 C203.32,192.00 202.00,191.77 202.00,191.48 Z" fill="rgb(254,254,254)"/>
</g>
</svg>