<svg xmlns="http://www.w3.org/2000/svg" width="612" height="408" viewBox="0 0 612 408">
<g>
<path d="M 410.38 215.25 L 407.65 232.00 L 396.98 232.00 L 397.58 227.75 C397.91,225.41 399.02,218.77 400.05,213.00 C401.07,207.23 402.45,198.99 403.10,194.70 L 404.29 186.89 L 425.08 187.20 C444.39,187.48 446.06,187.65 448.68,189.61 C457.57,196.26 454.05,212.55 442.74,217.06 C440.96,217.76 439.30,218.50 439.06,218.70 C438.81,218.90 441.50,221.97 445.03,225.53 L 451.44 232.00 L 437.80 232.00 L 430.54 225.50 C423.75,219.43 422.96,219.00 418.52,219.00 C414.08,219.00 413.81,218.85 414.37,216.75 C414.70,215.51 414.98,213.49 414.99,212.25 C415.00,210.05 415.24,210.00 426.55,210.00 C437.47,210.00 438.22,209.87 440.55,207.55 C443.08,205.01 443.67,201.61 442.02,199.00 C441.28,197.82 438.27,197.43 427.92,197.17 C420.68,196.99 414.39,197.21 413.93,197.67 C413.48,198.13 411.88,206.04 410.38,215.25 ZM 174.95 196.20 C173.98,198.31 173.26,198.50 166.20,198.50 C156.62,198.50 150.00,198.04 150.00,197.38 C150.00,197.10 150.47,196.00 151.04,194.93 C151.97,193.19 153.23,193.00 164.04,193.00 C170.62,193.00 176.00,193.20 176.00,193.45 C176.00,193.70 175.53,194.94 174.95,196.20 Z" fill="rgb(57,60,63)"/>
<path d="M 331.06 228.50 L 330.37 231.50 L 311.94 231.76 C291.76,232.04 290.75,231.81 285.00,225.54 C282.72,223.06 282.51,222.07 282.59,214.16 C282.69,204.36 284.45,199.75 290.16,194.34 C295.53,189.26 299.87,188.00 311.99,188.00 L 322.73 188.00 L 321.91 192.25 C321.46,194.59 321.07,196.84 321.04,197.25 C321.02,197.66 316.48,198.00 310.96,198.00 C299.59,198.00 296.66,199.18 294.36,204.67 C292.33,209.53 292.61,217.30 294.91,220.14 C296.73,222.39 297.40,222.50 309.14,222.50 L 321.46 222.50 L 322.18 218.50 C323.10,213.44 326.75,191.64 328.17,182.75 L 329.24 176.00 L 334.12 176.00 C334.46,176.00 334.77,176.00 335.07,175.99 C336.54,175.97 337.54,175.96 338.14,176.45 C339.41,177.48 338.86,180.76 337.14,191.04 C336.97,192.02 336.80,193.06 336.62,194.17 C335.30,202.05 333.67,212.32 332.99,217.00 C332.30,221.68 331.43,226.85 331.06,228.50 ZM 389.02 229.43 L 388.05 232.00 L 370.77 231.98 C354.75,231.97 353.22,231.81 349.58,229.73 C343.77,226.43 340.67,220.10 341.38,213.00 C342.55,201.40 346.44,194.98 355.28,190.09 C358.73,188.19 360.67,188.00 377.14,188.00 L 395.22 188.00 L 394.52 191.75 C394.14,193.78 393.89,195.15 393.11,196.07 C391.48,198.00 387.57,198.00 375.54,198.00 L 375.52 198.00 C359.68,198.00 359.23,198.06 356.65,200.45 C355.19,201.80 354.00,203.36 354.00,203.93 C354.00,204.57 359.71,205.05 369.25,205.22 L 384.50 205.50 L 384.15 209.50 C383.95,211.70 383.59,213.84 383.34,214.25 C383.09,214.66 375.93,215.00 367.44,215.00 C357.08,215.00 352.00,215.35 352.00,216.08 C352.00,216.67 353.32,218.47 354.92,220.08 L 357.85 223.00 L 373.92 223.00 C389.15,223.00 390.00,223.10 390.00,224.93 C390.00,226.00 389.56,228.02 389.02,229.43 ZM 231.13 228.00 C230.47,231.35 230.23,231.51 225.72,231.80 C221.37,232.09 221.00,231.93 220.98,229.80 C220.97,227.53 222.66,216.60 225.89,198.00 L 227.55 188.50 L 246.18 188.23 C263.69,187.97 265.03,188.09 268.44,190.10 C272.11,192.26 274.19,195.29 275.35,200.14 C275.90,202.43 274.35,215.94 272.58,224.25 C272.26,225.76 271.77,228.12 271.48,229.50 C271.02,231.72 270.46,232.00 266.48,232.00 L 262.00 232.00 L 262.00 228.25 C262.00,226.19 262.71,220.47 263.57,215.54 C265.32,205.55 264.85,200.53 262.02,199.01 C260.98,198.46 254.77,198.00 248.23,198.00 L 236.32 198.00 L 234.08 211.25 C232.84,218.54 231.52,226.07 231.13,228.00 ZM 212.44 230.75 C212.16,231.69 207.55,231.99 193.78,231.98 C177.99,231.96 174.93,231.70 171.32,230.06 C166.75,227.98 162.61,222.58 161.51,217.25 L 160.84 214.00 L 166.17 214.01 C170.96,214.01 171.66,214.30 173.10,216.82 C176.05,222.01 180.01,223.00 197.88,223.00 L 213.95 223.00 L 213.39 226.25 C213.08,228.04 212.65,230.06 212.44,230.75 ZM 208.16 208.78 C207.54,209.75 201.19,210.11 181.58,210.28 C167.41,210.40 155.60,210.16 155.34,209.74 C154.26,207.99 156.24,205.11 158.73,204.81 C160.61,204.59 161.57,203.74 162.07,201.86 C162.71,199.43 162.48,199.18 159.13,198.62 C158.49,198.52 157.75,198.42 157.00,198.33 C159.54,198.44 162.67,198.50 166.20,198.50 C172.94,198.50 173.91,198.33 174.82,196.47 C173.85,199.19 174.22,199.83 176.17,200.35 C177.45,200.69 185.36,200.98 193.75,200.99 L 209.00 201.00 L 208.98 204.25 C208.98,206.04 208.60,208.07 208.16,208.78 ZM 181.32 189.76 C178.63,191.28 169.37,191.40 168.45,189.92 C167.49,188.37 172.64,183.35 177.73,180.89 C181.59,179.02 184.11,178.76 199.99,178.55 C209.85,178.43 218.46,178.67 219.15,179.09 C220.06,179.66 220.14,180.86 219.44,183.68 L 218.50 187.50 L 201.00 188.01 C189.77,188.33 182.72,188.96 181.32,189.76 ZM 152.44 198.01 C151.21,197.99 150.51,197.92 150.24,197.59 C150.60,197.75 151.35,197.89 152.44,198.01 ZM 150.23 196.62 C150.38,196.20 150.65,195.65 151.04,194.93 C150.71,195.54 150.42,196.15 150.23,196.62 Z" fill="rgb(223,16,21)"/>
<path d="M 0.00 204.00 L 0.00 0.00 L 306.00 0.00 L 612.00 0.00 L 612.00 204.00 L 612.00 408.00 L 306.00 408.00 L 0.00 408.00 L 0.00 204.00 ZM 212.44 230.75 C212.65,230.06 213.08,228.04 213.39,226.25 L 213.95 223.00 L 197.88 223.00 C180.01,223.00 176.05,222.01 173.10,216.82 C171.66,214.30 170.96,214.01 166.17,214.01 L 160.84 214.00 L 161.51 217.25 C162.61,222.58 166.75,227.98 171.32,230.06 C174.93,231.70 177.99,231.96 193.78,231.98 C207.55,231.99 212.16,231.69 212.44,230.75 ZM 231.13 228.00 C231.52,226.07 232.84,218.54 234.08,211.25 L 236.32 198.00 L 248.23 198.00 C254.77,198.00 260.98,198.46 262.02,199.01 C264.85,200.53 265.32,205.55 263.57,215.54 C262.71,220.47 262.00,226.19 262.00,228.25 L 262.00 232.00 L 266.48 232.00 C270.46,232.00 271.02,231.72 271.48,229.50 C271.77,228.12 272.26,225.76 272.58,224.25 C274.35,215.94 275.90,202.43 275.35,200.14 C274.19,195.29 272.11,192.26 268.44,190.10 C265.03,188.09 263.69,187.97 246.18,188.23 L 227.55 188.50 L 225.89 198.00 C222.66,216.60 220.97,227.53 220.98,229.80 C221.00,231.93 221.37,232.09 225.72,231.80 C230.23,231.51 230.47,231.35 231.13,228.00 ZM 331.06 228.50 C331.43,226.85 332.30,221.68 332.99,217.00 C333.67,212.32 335.30,202.05 336.62,194.17 C339.83,174.83 339.99,176.00 334.12,176.00 L 329.24 176.00 L 328.17 182.75 C326.75,191.64 323.10,213.44 322.18,218.50 L 321.46 222.50 L 309.14 222.50 C297.40,222.50 296.73,222.39 294.91,220.14 C292.61,217.30 292.33,209.53 294.36,204.67 C296.66,199.18 299.59,198.00 310.96,198.00 C316.48,198.00 321.02,197.66 321.04,197.25 C321.07,196.84 321.46,194.59 321.91,192.25 L 322.73 188.00 L 311.99 188.00 C299.87,188.00 295.53,189.26 290.16,194.34 C284.45,199.75 282.69,204.36 282.59,214.16 C282.51,222.07 282.72,223.06 285.00,225.54 C290.75,231.81 291.76,232.04 311.94,231.76 L 330.37 231.50 L 331.06 228.50 ZM 389.02 229.43 C389.56,228.02 390.00,226.00 390.00,224.93 C390.00,223.10 389.15,223.00 373.92,223.00 L 357.85 223.00 L 354.92 220.08 C353.32,218.47 352.00,216.67 352.00,216.08 C352.00,215.35 357.08,215.00 367.44,215.00 C375.93,215.00 383.09,214.66 383.34,214.25 C383.59,213.84 383.95,211.70 384.15,209.50 L 384.50 205.50 L 369.25 205.22 C359.71,205.05 354.00,204.57 354.00,203.93 C354.00,203.36 355.19,201.80 356.65,200.45 C359.23,198.06 359.68,198.00 375.52,198.00 C393.36,198.00 393.35,198.00 394.52,191.75 L 395.22 188.00 L 377.14 188.00 C360.67,188.00 358.73,188.19 355.28,190.09 C346.44,194.98 342.55,201.40 341.38,213.00 C340.67,220.10 343.77,226.43 349.58,229.73 C353.22,231.81 354.75,231.97 370.77,231.98 L 388.05 232.00 L 389.02 229.43 ZM 410.38 215.25 C411.88,206.04 413.48,198.13 413.93,197.67 C414.39,197.21 420.68,196.99 427.92,197.17 C438.27,197.43 441.28,197.82 442.02,199.00 C443.67,201.61 443.08,205.01 440.55,207.55 C438.22,209.87 437.47,210.00 426.55,210.00 C415.24,210.00 415.00,210.05 414.99,212.25 C414.98,213.49 414.70,215.51 414.37,216.75 C413.81,218.85 414.08,219.00 418.52,219.00 C422.96,219.00 423.75,219.43 430.54,225.50 L 437.80 232.00 L 444.62 232.00 L 451.44 232.00 L 445.03 225.53 C441.50,221.97 438.81,218.90 439.06,218.70 C439.30,218.50 440.96,217.76 442.74,217.06 C454.05,212.55 457.57,196.26 448.68,189.61 C446.06,187.65 444.39,187.48 425.08,187.20 L 404.29 186.89 L 403.10 194.70 C402.45,198.99 401.07,207.23 400.05,213.00 C399.02,218.77 397.91,225.41 397.58,227.75 L 396.98 232.00 L 402.31 232.00 L 407.65 232.00 L 410.38 215.25 ZM 208.16 208.78 C208.60,208.07 208.98,206.04 208.98,204.25 L 209.00 201.00 L 193.75 200.99 C185.36,200.98 177.45,200.69 176.17,200.35 C173.86,199.73 173.76,198.95 175.49,194.75 C176.16,193.14 175.25,193.00 164.14,193.00 C153.23,193.00 151.97,193.19 151.04,194.93 C149.54,197.72 149.70,198.00 152.75,198.01 C154.26,198.02 157.14,198.29 159.13,198.62 C162.48,199.18 162.71,199.43 162.07,201.86 C161.57,203.74 160.61,204.59 158.73,204.81 C156.24,205.11 154.26,207.99 155.34,209.74 C155.60,210.16 167.41,210.40 181.58,210.28 C201.19,210.11 207.54,209.75 208.16,208.78 ZM 181.32 189.76 C182.72,188.96 189.77,188.33 201.00,188.01 L 218.50 187.50 L 219.44 183.68 C220.14,180.86 220.06,179.66 219.15,179.09 C218.46,178.67 209.85,178.43 199.99,178.55 C184.11,178.76 181.59,179.02 177.73,180.89 C172.64,183.35 167.49,188.37 168.45,189.92 C169.37,191.40 178.63,191.28 181.32,189.76 Z" fill="rgb(254,254,254)"/>
</g>
</svg>